<?xml version="1.0" encoding="utf-8"?>
<!-- Generator: Adobe Illustrator 21.1.0, SVG Export Plug-In . SVG Version: 6.00 Build 0)  -->
<svg version="1.1" id="Lager_1" xmlns="http://www.w3.org/2000/svg" xmlns:xlink="http://www.w3.org/1999/xlink" x="0px" y="0px"
	 viewBox="0 0 19.5 24" style="enable-background:new 0 0 19.5 24;" xml:space="preserve">
<style type="text/css">
	.st0{fill:#FFFFFF;}
</style>
<g id="surface1">
	<path class="st0" d="M9.8,3.1c-0.6,0-1,0-1.4,0.1c0.4-1,1-1.9,1.4-2.3c0.2-0.2,0-0.6-0.3-0.6C5.1,1.4,0.9,6.6,0.9,12
		c0,4.9,4,8.9,8.9,8.9c0.6,0,1,0,1.4-0.1c-0.4,1-1,1.9-1.4,2.3c-0.2,0.2,0,0.6,0.3,0.6c4.3-1,8.5-6.2,8.5-11.6
		C18.6,7.1,14.6,3.1,9.8,3.1z M9.8,15.3c-1.9,0-3.3-1.4-3.3-3.3s1.4-3.3,3.3-3.3s3.3,1.4,3.3,3.3S11.6,15.3,9.8,15.3z"/>
</g>
</svg>
