<?xml version="1.0" encoding="utf-8"?>
<!-- Generator: Adobe Illustrator 21.1.0, SVG Export Plug-In . SVG Version: 6.00 Build 0)  -->
<svg version="1.1" id="Lager_1" xmlns="http://www.w3.org/2000/svg" xmlns:xlink="http://www.w3.org/1999/xlink" x="0px" y="0px"
	 viewBox="0 0 24 18.7" style="enable-background:new 0 0 24 18.7;" xml:space="preserve">
<style type="text/css">
	.st0{fill:#FFFFFF;}
</style>
<g id="surface1">
	<path class="st0" d="M8.8,8.3V0.7h6.5v7.6c0,1.8-1.4,3.3-3.3,3.3S8.8,10.1,8.8,8.3z M21.8,0.7h-4.3v7.6c0,3-2.4,5.4-5.4,5.4
		s-5.4-2.4-5.4-5.4V0.7H2.3c-1.2,0-2.2,1-2.2,2.2v13c0,1.2,1,2.2,2.2,2.2h19.5c1.2,0,2.2-1,2.2-2.2v-13C23.9,1.6,22.9,0.7,21.8,0.7z
		"/>
</g>
</svg>
