<?xml version="1.0" encoding="utf-8"?>
<!-- Generator: Adobe Illustrator 21.1.0, SVG Export Plug-In . SVG Version: 6.00 Build 0)  -->
<svg version="1.1" id="Lager_1" xmlns="http://www.w3.org/2000/svg" xmlns:xlink="http://www.w3.org/1999/xlink" x="0px" y="0px"
	 viewBox="0 0 26 22.1" style="enable-background:new 0 0 26 22.1;" xml:space="preserve">
<style type="text/css">
	.st0{fill:#FFFFFF;}
</style>
<g id="surface1">
	<path class="st0" d="M9.9,1.2v18.7l4.1,1.2V5.6c0-0.5,0-0.8,0.2-0.9c0.2-0.2,0.3-0.3,0.6-0.2c0.6,0.2,0.8,0.7,0.8,1.5v6.3
		c1.3,0.6,2.5,0.7,3.4,0c0.9-0.6,1.3-1.7,1.3-3.4c0-1.7-0.3-3.1-1.1-3.9c-0.7-0.9-1.9-1.6-3.7-2.4C13.3,2,11.5,1.5,9.9,1.2z
		 M8.7,12.5l-0.8,0.2l-5,1.8l-0.8,0.3c-1.3,0.5-2,1.1-1.9,1.6c0.1,0.7,0.9,1.3,2.5,1.7c2,0.5,4.1,0.7,6.1,0.3v-2.1l-0.8,0.4L7,17.1
		l-1.4,0.3l-1.3-0.2C3.9,17,3.8,16.8,4,16.7c0.2-0.1,0.4-0.2,0.7-0.3l0.9-0.3L8.7,15C8.7,15,8.7,12.5,8.7,12.5z M20.4,13.5
		c-0.4,0-0.7,0-1.1,0c-1.3,0-2.8,0.2-4.2,0.7v2.6l2.9-1l1.4-0.5c0,0,0.5-0.1,0.9-0.3c0.6-0.2,1.3,0.1,1.3,0.1c0.4,0,0.6,0.2,0.6,0.3
		c0.1,0.2-0.2,0.4-0.7,0.5l-1.3,0.5L15,18.3v2.5l2.5-0.8l5.8-2l0.7-0.3c1.4-0.5,2-1,1.9-1.7c0-0.6-0.8-1.2-2.3-1.6
		C22.6,13.7,21.5,13.5,20.4,13.5z"/>
</g>
</svg>
