<?xml version="1.0" encoding="utf-8"?>
<!-- Generator: Adobe Illustrator 21.1.0, SVG Export Plug-In . SVG Version: 6.00 Build 0)  -->
<svg version="1.1" id="Lager_1" xmlns="http://www.w3.org/2000/svg" xmlns:xlink="http://www.w3.org/1999/xlink" x="0px" y="0px"
	 viewBox="0 0 26 26" style="enable-background:new 0 0 26 26;" xml:space="preserve">
<style type="text/css">
	.st0{fill:#FFFFFF;}
</style>
<g id="surface1">
	<path class="st0" d="M5.9,2.3C5.9,2.3,5.8,2.3,5.9,2.3c0,0,0.1-0.1,0.2-0.2c2-1.3,4.3-2,6.9-2c2.4,0,4.7,0.7,6.6,1.8
		c0.1,0.1,0.5,0.3,0.7,0.6C18.5,0.5,13,4.9,13,4.9c-1.9-1.5-3.6-2.5-4.9-2.8C7,1.8,6.2,2,5.9,2.3z M22.4,4.2
		c-0.1-0.1-0.1-0.1-0.2-0.2c-0.5-0.5-1-0.6-1.6-0.6c-0.5,0.2-2.7,0.9-5.4,3.5c0,0,3,3,4.9,6c1.9,3,3,5.4,2.3,8.7
		c2.1-2.3,3.3-5.3,3.3-8.7C25.9,9.6,24.6,6.5,22.4,4.2z M17.8,14.2c-0.8-0.9-2.1-2.3-3.7-3.9C13.8,10,13.4,9.6,13,9.2
		c0,0-0.6,0.6-1.4,1.4v0c-1,1-2.3,2.3-3,3.1c-1.3,1.4-4.9,5.6-5.1,8c0,0-0.8-1.9,1-6.2c1.2-2.8,4.7-7.1,6.1-8.5c0,0-1.3-1.5-3-2.5
		l0,0c0,0,0,0,0,0C6.8,3.9,5.9,3.5,5,3.5C4.2,3.5,3.6,4.2,3.6,4.2C1.5,6.5,0.1,9.6,0.1,13c0,7.1,5.8,12.9,12.9,12.9
		c3.8,0,7.2-1.6,9.5-4.2c0,0-0.3-1.7-2-4.1C20.1,16.9,18.6,15.2,17.8,14.2z"/>
</g>
</svg>
