<?xml version="1.0" encoding="utf-8"?>
<!-- Generator: Adobe Illustrator 21.1.0, SVG Export Plug-In . SVG Version: 6.00 Build 0)  -->
<svg version="1.1" id="Lager_1" xmlns="http://www.w3.org/2000/svg" xmlns:xlink="http://www.w3.org/1999/xlink" x="0px" y="0px"
	 viewBox="0 0 24 24" style="enable-background:new 0 0 24 24;" xml:space="preserve">
<style type="text/css">
	.st0{fill:none;}
	.st1{fill:#FFFFFF;}
</style>
<g>
	<path class="st0" d="M-2.5,27.1V-0.9h28.1v28.1H-2.5z"/>
	<g>
		<path class="st1" d="M16.3,0.2C15,0.3,13.4,1.1,12.5,2c-0.8,0.9-1.5,2.2-1.2,3.4c1.5,0,2.9-0.7,3.8-1.7
			C15.9,2.8,16.5,1.5,16.3,0.2z M16.4,5.4c-2.1,0-3,1.3-4.5,1.3c-1.5,0-2.9-1.2-4.7-1.2C4.8,5.5,1,7.8,1,13.2c0,4.9,4.5,10.4,7,10.4
			c1.5,0,1.9-1,4-1c2.1,0,2.5,1,4.1,1c1.7,0,3.1-1.9,4.1-3.4c0.7-1.1,1-1.6,1.5-2.8c-4.1-1-4.9-7.6,0-8.9C20.7,6.9,18,5.4,16.4,5.4z
			"/>
	</g>
</g>
</svg>
