<?xml version="1.0"?>
<svg xmlns="http://www.w3.org/2000/svg" xmlns:xlink="http://www.w3.org/1999/xlink" version="1.1" viewBox="0 0 192 192" width="50px" height="50px"><g fill="none" fill-rule="nonzero" stroke="none" stroke-width="1" stroke-linecap="butt" stroke-linejoin="miter" stroke-miterlimit="10" stroke-dasharray="" stroke-dashoffset="0" font-family="none" font-weight="none" font-size="none" text-anchor="none" style="mix-blend-mode: normal"><path d="M0,192v-192h192v192z" fill="none"/><g fill="#ffffff"><g id="surface1"><path d="M74.88,0c-7.41,0 -13.44,6.03 -13.44,13.44c0,7.41 6.03,13.44 13.44,13.44c7.41,0 13.44,-6.03 13.44,-13.44c0,-7.41 -6.03,-13.44 -13.44,-13.44zM29.16,7.68c-16.635,0 -29.16,13.635 -29.16,31.68c0,16.425 16.905,24 28.32,24c11.775,0 29.28,-7.95 29.28,-30.12c0,-20.19 -18.615,-25.56 -28.44,-25.56zM120.24,19.32c-47.7,0 -86.4,42.435 -86.4,94.56c0,46.11 57.495,74.28 88.8,74.28c32.76,0 69.36,-38.505 69.36,-90.12c0,-49.92 -54.465,-78.72 -71.76,-78.72zM69.12,72.96h19.2v44.16c0,3.18 2.58,5.76 5.76,5.76h34.56c3.18,0 5.76,-2.58 5.76,-5.76v-44.16h19.2v69.12h-59.52c-13.785,0 -24.96,-11.175 -24.96,-24.96z"/></g></g></g></svg>
