<?xml version="1.0" encoding="utf-8"?>
<!-- Generator: Adobe Illustrator 21.1.0, SVG Export Plug-In . SVG Version: 6.00 Build 0)  -->
<svg version="1.1" id="Layer_1" xmlns="http://www.w3.org/2000/svg" xmlns:xlink="http://www.w3.org/1999/xlink" x="0px" y="0px"
	 viewBox="0 0 500 150" style="enable-background:new 0 0 500 150;" xml:space="preserve">
<style type="text/css">
	.st0{fill:#FFFFFF;}
</style>
<g id="XMLID_1_">
	<path id="XMLID_5_" class="st0" d="M61.9,121c0,1.2-1.2,2.3-2.3,2.3H16.8c-1.2,0-2.3-1.2-2.3-2.3V89.9c0-1.2,1.2-2.3,2.3-2.3h42.8
		c1.2,0,2.3,1.2,2.3,2.3C61.9,89.9,61.9,121,61.9,121z M59.9,78.2H16.3C10.1,78.2,5,83.3,5,89.5v31.1c0,6.2,5.1,11.3,11.3,11.3h43.5
		c6.2,0,11.3-5.1,11.3-11.3V89.5C71.3,83.3,66.3,78.2,59.9,78.2"/>
	<path id="XMLID_17_" class="st0" d="M61.9,60.5c0,1.2-1.2,2.3-2.3,2.3H16.8c-1.2,0-2.3-1.2-2.3-2.3V29.4c0-1.2,1.2-2.3,2.3-2.3
		h42.8c1.2,0,2.3,1.2,2.3,2.3C61.9,29.4,61.9,60.5,61.9,60.5z M59.9,17.6H16.3C10.1,17.6,5,22.7,5,29v31.5c0,6.2,5.1,11.3,11.3,11.3
		h43.5c6.2,0,11.3-5.1,11.3-11.3V29.1C71.3,22.7,66.3,17.6,59.9,17.6"/>
	<path id="XMLID_18_" class="st0" d="M385.9,110c10.2,3.9,32.2,7.4,49.5,7.4c18.9,0,26.7-6.2,26.7-14.5c0-7.1-7.1-11.3-27.9-19.3
		c-27.9-10.2-47.9-18.4-47.9-36.6c0-18.9,24.4-29.9,61.7-29.9c20,0,26.7,1.2,39.6,3.5v18c-12.6-2.3-23.5-6.2-40.8-6.2
		c-18.4,0-26.3,6-26.3,11.8c0,8.7,12.2,12.9,33.4,20.5c29.5,10.6,46,18.9,46,36.6c0,18.4-20.5,31.4-67.2,31.4
		c-18.9,0-32.2-1.2-46.7-3.5L385.9,110L385.9,110z"/>
	<path id="XMLID_21_" class="st0" d="M287.3,32.9h-22.1v83.6h22.1c33.8,0,55.5-14.5,55.5-41.7S321.6,32.9,287.3,32.9 M346.7,124.5
		c-11,5.1-31.4,8.3-49.5,8.3h-69.1V17.6h69.1c18,0,38.9,3.2,49.9,8.3c26.7,12.2,35.4,31.1,35.4,49.5c0,18-8.7,37.3-35.4,49.5"/>
	<path id="XMLID_22_" class="st0" d="M179.3,69.5c0,0,32.2-5.1,32.2-25.1c0-19.6-34.1-27.4-70.7-27.4c-33,0-54.6,3.9-54.6,3.9v17.7
		c15-3.5,29-6.7,48.8-6.7c20.8,0,36.9,6.2,36.9,15c0,10.6-15.7,16.8-49.9,16.8h-15.7v16.1h14.5c35.7,0,56.2,5.5,56.2,18.4
		c0,11.8-18,18.9-40.8,18.9c-19.6,0-37.7-4.4-52.7-8.3v19.3c7.1,1.2,26,5.1,60.5,5.1c38.5,0,72.3-12.6,72.3-34.1
		c0-18.4-23.2-29-36.9-29"/>
</g>
</svg>
