<?xml version="1.0" encoding="utf-8"?>
<!-- Generator: Adobe Illustrator 21.1.0, SVG Export Plug-In . SVG Version: 6.00 Build 0)  -->
<svg version="1.1" id="Layer_1" xmlns="http://www.w3.org/2000/svg" xmlns:xlink="http://www.w3.org/1999/xlink" x="0px" y="0px"
	 viewBox="0 0 1024 1024" style="enable-background:new 0 0 1024 1024;" xml:space="preserve">
<style type="text/css">
	.st0{fill-rule:evenodd;clip-rule:evenodd;fill:#FFFFFF;}
</style>
<g>
	<path class="st0" d="M596,511c0-165.5,0-331,0-496.5c0-14.2,0.2-14.4,14.8-14.4c51.4,0,102.8-0.7,154.2,0.1
		c125.4,2,230.3,91.4,253.2,211.5c3.6,19,5.4,38.7,5.5,58.1c0.4,162.9,0.3,325.9,0.2,488.8c0,112-68.1,210.4-172.4,249.1
		c-29,10.7-59.2,15.9-90.1,16.1c-49.5,0.3-99,0.1-148.5,0.1c-17,0-17,0-17-17.4C596,841.3,596,676.2,596,511z M799.6,460.2
		c-57.5-1.3-103.3,46.9-104.1,101.2c-0.8,56.4,45.2,101.6,96.7,104.5c61.8,3.5,109.2-47.1,109.2-101.4
		C901.4,507,857.5,461.3,799.6,460.2z"/>
	<path class="st0" d="M493.7,512.1c0,165.9,0,331.7,0,497.6c0,12.9-1.4,14.3-14.3,14.3c-70.4,0-140.8-0.1-211.2-0.1
		c-72,0-135.1-23.6-187.4-73.3c-38.9-36.9-64-82.2-74.9-134.8c-3.2-15.3-5.7-31-5.7-46.6c-0.4-171.3-2.6-342.7,0.6-514
		c2-107.4,57.1-185,154-231.8C190.6,6.3,228.9,0,268.5,0.1c70.1,0.2,140.2,0,210.2,0c14.5,0,15,0.5,15,15.4
		C493.7,181,493.7,346.5,493.7,512.1z M410.1,940.4c0-286,0-571.4,0-857.4c-4.2,0-7.7,0-11.2,0c-43.1,0-86.1-0.3-129.2,0.2
		c-14.3,0.2-28.8,1.3-42.9,3.9C146.1,101.6,83,177.4,82.9,259.6c-0.1,168.7-0.5,337.4,0.3,506.1c0.2,50.4,21,93.1,58,127.5
		c35.5,33,78.2,47.5,126.1,47.7c44.7,0.2,89.3,0,134,0C404.1,940.9,406.9,940.6,410.1,940.4z"/>
	<path class="st0" d="M159.8,306.6c-1.5-49.8,40.4-96,95.6-95.8c53.8,0.2,97.1,40.7,96.7,98c-0.3,56.9-48.2,95.9-97.8,94.7
		C200.8,402.2,159.4,360.6,159.8,306.6z"/>
</g>
</svg>
