<?xml version="1.0" encoding="utf-8"?>
<!-- Generator: Adobe Illustrator 21.1.0, SVG Export Plug-In . SVG Version: 6.00 Build 0)  -->
<svg version="1.1" id="Lager_1" xmlns="http://www.w3.org/2000/svg" xmlns:xlink="http://www.w3.org/1999/xlink" x="0px" y="0px"
	 viewBox="0 0 64 64" style="enable-background:new 0 0 64 64;" xml:space="preserve">
<style type="text/css">
	.st0{fill:#FFFFFF;}
	.st1{opacity:0.2;enable-background:new    ;}
</style>
<path class="st0" d="M23.8,43.5c0.7-1.7-0.1-3.8-1.8-4.5l-2.6-1c0.6-0.2,1.3-0.3,1.8-0.3c2.9,0,5.1,2.3,5.1,5.1S24,48,21.1,48
	c-2.3,0-4.3-1.6-4.9-3.8l3.1,1.3C21,46.2,23.1,45.4,23.8,43.5z"/>
<path class="st0" d="M41.1,16c-4.5,0-8,3.5-8,8s3.5,8,8,8s8-3.5,8-8S45.6,16,41.1,16z M41.1,29.7c-3.2,0-5.7-2.5-5.7-5.7
	s2.5-5.7,5.7-5.7c3.2,0,5.7,2.5,5.7,5.7S44.3,29.7,41.1,29.7z"/>
<path class="st0" d="M64,32c0,17.7-14.3,32-32,32C16.2,64,3.3,52.8,0.6,37.8l12,4.9v0.1c0,4.7,3.9,8.6,8.6,8.6
	c2.4,0,4.5-0.9,6.1-2.5c1.6-1.6,2.5-3.7,2.5-6.1c0-0.1,0-0.3,0-0.5l9.7-7.2c0.6,0.2,1.1,0.2,1.7,0.2c6.3,0,11.4-5.1,11.4-11.4
	s-5.1-11.4-11.4-11.4S29.7,17.7,29.7,24l-7.5,10.4c-0.3,0-0.7-0.1-1-0.1c-2.1,0-4.1,0.8-5.7,2.2L1.7,31c-0.3-0.1-1-0.3-1.6-0.6
	c0,0.7-0.1,1.5-0.1,2.2c0-0.2,0-0.3,0-0.6C0,14.3,14.3,0,32,0S64,14.3,64,32z"/>
<path class="st1" d="M0,32.6c0,0.2,0,0.5,0,0.6c0,1.6,0.1,3.1,0.3,4.6l0.2,0.1C0.2,36.1,0,34.4,0,32.6z"/>
</svg>
