<svg xmlns="http://www.w3.org/2000/svg" viewBox="0 0 273.8 273.94"><defs><style>.cls-1{fill:#1d1d1b;}</style></defs><title>Resurs 2</title><g id="Lager_2" data-name="Lager 2"><g id="Lager_1-2" data-name="Lager 1"><path class="cls-1" d="M245.17,55.77a51.32,51.32,0,0,0-31.63-3.54c-19.63,4.21-36.81,20-56.82,18.53-10.1-.73-19.32-5.87-28.48-10.28-22.4-10.79-48-18-71.85-11.18-8.82,2.52-18.22,6.85-26.84,5.38a135.29,135.29,0,1,0,215.62,1.09ZM211,64.08a9.36,9.36,0,1,1-9.36,9.37A9.37,9.37,0,0,1,211,64.08Zm-61.11,60.82h10.66l-1.06,4.87a14.08,14.08,0,0,1,5.45-4.09,18.43,18.43,0,0,1,7.32-1.4,9.59,9.59,0,0,1,3.71.62,5.63,5.63,0,0,1,3.45,4.09,11.71,11.71,0,0,1,.31,2.7,15.85,15.85,0,0,1-.16,2.31c-.1.75-.21,1.46-.34,2.12l-4.55,21.56H162.88l3.92-18.45a8.12,8.12,0,0,0,.18-1.62,3.11,3.11,0,0,0-.71-2.27,2.33,2.33,0,0,0-1.71-.71,5.23,5.23,0,0,0-3,1.31,11.05,11.05,0,0,0-2.9,3.36l-3.92,18.38H142.94Zm-34.86,1a14.56,14.56,0,0,1,6.75-1.65,9,9,0,0,1,5.14,1.44,7,7,0,0,1,2.91,4.05l1-4.62h11.9l-4.17,19.45a7.79,7.79,0,0,0-.19,1.49c0,1,.56,1.58,1.69,1.62l-2.12,10a27.32,27.32,0,0,1-5,.62,8,8,0,0,1-4.43-1.06,4.12,4.12,0,0,1-1.62-3.74,4.81,4.81,0,0,1,.06-.93,13.59,13.59,0,0,1-5.21,4.36,14.13,14.13,0,0,1-6,1.37,11.87,11.87,0,0,1-4.89-1,10.42,10.42,0,0,1-3.65-2.71,12.09,12.09,0,0,1-2.27-4.18,17.66,17.66,0,0,1-.78-5.36,22.16,22.16,0,0,1,1.44-8,22.46,22.46,0,0,1,3.86-6.64A18.54,18.54,0,0,1,115.05,125.93ZM85,70.84A9.17,9.17,0,1,1,75.86,80,9.17,9.17,0,0,1,85,70.84ZM29.52,94.07a7.24,7.24,0,1,1,7.24-7.24A7.24,7.24,0,0,1,29.52,94.07Zm9.73,36.23a5.19,5.19,0,1,1,5.18-5.19A5.19,5.19,0,0,1,39.26,130.3Zm23-16.85H75.57l4.05,20.81,13-20.81H105.8l-9.41,44.25H84.23l4.92-23.3-9.84,16.39H72.89L70,134.38l-5,23.3H52.89Zm28.2,110.64a15.37,15.37,0,0,1-4.57,5.21,18.62,18.62,0,0,1-6.27,2.87,28,28,0,0,1-6.82.87,30.11,30.11,0,0,1-4.67-.38,33.47,33.47,0,0,1-4.62-1.05,35.86,35.86,0,0,1-4.3-1.62,23.62,23.62,0,0,1-3.74-2.12L63,217.26l1.56,1.12A19.56,19.56,0,0,0,67.32,220a24.38,24.38,0,0,0,3.7,1.43,14.62,14.62,0,0,0,4.31.62c1.41,0,2.3-.24,2.68-.71a2.5,2.5,0,0,0,.56-1.59,1.81,1.81,0,0,0-.68-1.4,7.25,7.25,0,0,0-1.81-1.09,25.07,25.07,0,0,0-2.58-1c-1-.31-2-.67-3-1.09a15.61,15.61,0,0,1-6.13-3.92,8.53,8.53,0,0,1-2-5.86A16.1,16.1,0,0,1,64,198a17.07,17.07,0,0,1,4.43-5.52A20,20,0,0,1,74.6,189a21.59,21.59,0,0,1,7-1.18,21,21,0,0,1,4.45.47,29.41,29.41,0,0,1,4.05,1.18,35,35,0,0,1,3.52,1.56c1.08.57,2,1.09,2.87,1.59l-7.36,10s-.36-.28-1-.72a21.13,21.13,0,0,0-2.34-1.4,21.49,21.49,0,0,0-3.24-1.34,11.72,11.72,0,0,0-3.67-.59,4.16,4.16,0,0,0-2.34.62,2.18,2.18,0,0,0-1,2c0,1,.6,1.69,1.81,2.18s2.8,1.1,4.79,1.81c1.5.59,2.86,1.19,4.09,1.81a13.53,13.53,0,0,1,3.18,2.18,8.5,8.5,0,0,1,2.05,2.92,10.16,10.16,0,0,1,.71,4A16.12,16.12,0,0,1,90.49,224.08Zm20.91-1.71a8.54,8.54,0,0,0,1.9-.27,19.14,19.14,0,0,0,2.4-.78v9.35a48.55,48.55,0,0,1-5.64,1.78,23.09,23.09,0,0,1-5.52.71,13.35,13.35,0,0,1-3.12-.35,6.93,6.93,0,0,1-2.53-1.15,5.42,5.42,0,0,1-1.68-2.06,7.24,7.24,0,0,1-.6-3.12c0-.46,0-.92.06-1.37a13.3,13.3,0,0,1,.25-1.49l3.18-15h-3.8l1.93-8.92h3.8l2.18-10.28h11.84l-2.18,10.28h6L118,208.6h-6l-2.31,10.84c0,.2-.07.4-.09.59s0,.37,0,.53C109.54,221.77,110.16,222.37,111.41,222.37Zm42.16-2.18a20,20,0,0,1-4.23,6.54,21.2,21.2,0,0,1-6.7,4.62,21.74,21.74,0,0,1-8.85,1.74,16.31,16.31,0,0,1-6.2-1.09,12.33,12.33,0,0,1-4.39-3,11.87,11.87,0,0,1-2.58-4.36,16.3,16.3,0,0,1-.84-5.23,20.51,20.51,0,0,1,5.67-14,20.57,20.57,0,0,1,6.66-4.61,21.75,21.75,0,0,1,8.92-1.75,16.23,16.23,0,0,1,6.2,1.09,12.41,12.41,0,0,1,4.4,3,11.9,11.9,0,0,1,2.58,4.33,16.19,16.19,0,0,1,.84,5.26A19.94,19.94,0,0,1,153.56,220.19Zm22.34-9.66a9.54,9.54,0,0,0-4.49,2.49l-4.11,19.45H155.46l7-32.78h10.84l-1.37,6.23a18.74,18.74,0,0,1,5.2-5.08,10.62,10.62,0,0,1,5.65-1.78h.93a1.22,1.22,0,0,1,.43.06l-2.24,10.66A23.27,23.27,0,0,0,175.9,210.53Zm19.66,13a3.8,3.8,0,0,0,3.09,1.09,6.79,6.79,0,0,0,6.1-3.36l9.28,3a17.69,17.69,0,0,1-3.33,3.62,23.19,23.19,0,0,1-4.31,2.8,22.67,22.67,0,0,1-4.88,1.81,21.68,21.68,0,0,1-5.11.62,16,16,0,0,1-5.79-1,12.59,12.59,0,0,1-4.46-2.8,12.27,12.27,0,0,1-2.83-4.36,15.57,15.57,0,0,1-1-5.74,18.54,18.54,0,0,1,1.69-7.84,20.22,20.22,0,0,1,4.61-6.42,21.6,21.6,0,0,1,6.88-4.3,22.92,22.92,0,0,1,8.45-1.56q6,0,9.31,2.52a8.3,8.3,0,0,1,3.34,7,9,9,0,0,1-5.08,8.35q-5.09,2.8-15,2.8h-1.81A6,6,0,0,0,195.56,223.52Zm22.21-75.81-2.12,10a27.23,27.23,0,0,1-5,.62,8,8,0,0,1-4.42-1.06,4.12,4.12,0,0,1-1.62-3.74,5.89,5.89,0,0,1,.05-.93,13.64,13.64,0,0,1-5.2,4.36,14.16,14.16,0,0,1-6,1.37,11.84,11.84,0,0,1-4.89-1,10.34,10.34,0,0,1-3.65-2.71,11.8,11.8,0,0,1-2.27-4.18,17.38,17.38,0,0,1-.78-5.36,22.69,22.69,0,0,1,5.3-14.64,18.51,18.51,0,0,1,5.64-4.52,14.63,14.63,0,0,1,6.76-1.65,9,9,0,0,1,5.14,1.44,7,7,0,0,1,2.9,4.05l1-4.62h11.9l-4.18,19.45a7.65,7.65,0,0,0-.18,1.49C216.1,147.14,216.66,147.67,217.78,147.72ZM231.66,88a8.2,8.2,0,1,1,8.21,8.19A8.21,8.21,0,0,1,231.66,88Zm12.68,54.79a6.4,6.4,0,1,1,6.39-6.39A6.4,6.4,0,0,1,244.34,142.8Z"/><path class="cls-1" d="M246,54.29a54.48,54.48,0,0,0-39.65-1.83C193.6,56.78,182.17,64.66,169,67.89c-17.21,4.23-31.24-5.27-46.37-11.87-13.3-5.8-27.43-10.15-42-11a75.53,75.53,0,0,0-24.7,2.58C47.26,50.09,38.77,54.16,29.55,53a1.73,1.73,0,0,0-1.48.85C1.67,88.62-6.9,134.74,5.75,176.62a137.06,137.06,0,0,0,179.69,88.53A138.23,138.23,0,0,0,263,190.81c19.08-44.65,12.58-97-16.31-135.91-1.3-1.76-4.29,0-3,1.73,32.63,44,35.67,104.59,6.56,151.13a134.75,134.75,0,0,1-122.38,62.49C79.7,267.06,36.18,237,15.78,193.31A133.59,133.59,0,0,1,18.54,75.09q2.24-4.27,4.78-8.36C25,64,27.07,59.47,29.59,57.46c2-1.6,6-.79,8.68-1.21a74.61,74.61,0,0,0,11-2.91C65.49,48.12,81,47.09,97.61,51.07c15.7,3.75,29.28,11.57,44.07,17.59,13.1,5.33,25.43,4.46,38.35-.86,13.18-5.43,25.69-13.71,40.25-14.79a51,51,0,0,1,24,4.25C246.31,58.13,248.06,55.17,246,54.29Z"/><path class="cls-1" d="M211,65.8c9.79.53,9.88,15.29,0,15.29s-9.79-14.76,0-15.29c2.2-.12,2.21-3.56,0-3.44-6,.32-11.08,4.82-11.08,11.08a11.07,11.07,0,0,0,22.13.51c.29-6.47-4.84-11.26-11.06-11.59C208.81,62.25,208.82,65.68,211,65.8Z"/><path class="cls-1" d="M149.91,126.63h10.66l-1.66-2.18-1.06,4.87c-.34,1.57,1.66,3,2.87,1.67a14.35,14.35,0,0,1,10-4.93c5.62-.39,7.85,3.47,7.09,8.58-.29,2-.8,4-1.21,5.93l-3.51,16.66,1.66-1.26H162.88l1.66,2.18,3-14.22c.75-3.52,2.9-10.62-2.77-11-5.37-.34-7.66,5.54-8.56,9.72l-3.11,14.56,1.66-1.26H142.94l1.66,2.18,7-32.78c.46-2.16-2.85-3.08-3.31-.91l-7,32.78a1.74,1.74,0,0,0,1.66,2.18h11.84a1.74,1.74,0,0,0,1.66-1.26l2.06-9.67c.54-2.54,1.11-11.44,5.06-11.78,2.66-.23,1.44,2.8,1.16,4.13l-1.43,6.7-2.06,9.7a1.74,1.74,0,0,0,1.66,2.18h11.84a1.74,1.74,0,0,0,1.66-1.26c1.51-7.17,3.2-14.33,4.54-21.54.92-4.93,1.08-11.17-4.47-13.36-6.17-2.44-14,.64-18.16,5.31l2.87,1.67,1.06-4.87a1.74,1.74,0,0,0-1.66-2.18H149.91A1.72,1.72,0,0,0,149.91,126.63Z"/><path class="cls-1" d="M115.92,127.42c4.23-1.88,10.3-2.45,12.28,2.81.55,1.45,2.93,1.8,3.31,0l1-4.62-1.66,1.26h11.9l-1.66-2.18L138,139.1c-.7,3.28-3.13,9.22,1.61,10.27l-1.2-2.11L137,154.08c-.12.57-.2,2.54-.61,2.88.85-.7-2.12-.4-2.41-.41-2.4,0-5.49-1.28-5.3-4a1.73,1.73,0,0,0-2.93-1.22c-6.35,7.78-18.88,6.53-19.83-4.83a20.18,20.18,0,0,1,10-19.12c1.92-1.09.19-4.06-1.73-3-9.22,5.23-14.83,17.87-10.35,28,4.55,10.32,18,9.07,24.3,1.33l-2.93-1.22c-.54,7.94,7.39,7.83,13.21,6.77a1.67,1.67,0,0,0,1.2-1.2l2.12-10a1.75,1.75,0,0,0-1.2-2.11c-1-.22,3.45-18.44,3.88-20.45a1.74,1.74,0,0,0-1.66-2.18h-11.9a1.74,1.74,0,0,0-1.66,1.26l-1,4.62h3.31c-2.84-7.56-10.78-7.78-17.32-4.87C112.17,125.35,113.92,128.31,115.92,127.42Z"/><path class="cls-1" d="M85,72.56c9.55.51,9.63,14.91,0,14.91s-9.55-14.4,0-14.91c2.2-.12,2.21-3.56,0-3.44-5.91.32-10.89,4.73-10.89,10.89a10.88,10.88,0,0,0,21.76.5c.29-6.36-4.75-11.06-10.86-11.39C82.82,69,82.83,72.44,85,72.56Z"/><path class="cls-1" d="M29.52,92.35c-7.07-.38-7.13-11,0-11s7.07,10.66,0,11c-2.2.12-2.21,3.56,0,3.44,4.85-.26,9-3.89,9-9a9,9,0,0,0-17.89-.39c-.23,5.22,3.92,9.08,8.94,9.35C31.73,95.91,31.73,92.47,29.52,92.35Z"/><path class="cls-1" d="M39.26,128.58c-4.44-.24-4.48-6.94,0-6.94s4.43,6.7,0,6.94c-2.2.12-2.21,3.56,0,3.44a6.91,6.91,0,1,0-6.89-7.19A7,7,0,0,0,39.26,132C41.47,132.13,41.46,128.7,39.26,128.58Z"/><path class="cls-1" d="M62.29,115.16H75.57l-1.66-1.26L78,134.71c.3,1.52,2.41,1.58,3.14.41l11-17.72c.36-.58,1.8-2.22,1.82-2.92,0,.1-1.41.3-1,.68s2.14,0,2.48,0H105.8L104.14,113l-9.41,44.25L96.39,156H84.23l1.66,2.18,4.92-23.3a1.73,1.73,0,0,0-3.14-1.32L80.53,145.4c-.89,1.48-1.77,3-2.67,4.44,1.26-2.05,1.66-.33.42-.79a8.76,8.76,0,0,0-2.18,0H72.89l1.66,1.26-2.86-16.39c-.29-1.67-3-1.61-3.31,0l-5,23.3L65,156H52.89l1.66,2.18L64,113.9c.46-2.16-2.85-3.08-3.31-.91l-9.4,44.25a1.74,1.74,0,0,0,1.66,2.18H65a1.74,1.74,0,0,0,1.66-1.26l5-23.3H68.37l2.86,16.39a1.73,1.73,0,0,0,1.66,1.26c1.83,0,5.22.73,6.88-.06,1.32-.63,1.94-2.32,2.67-3.52l8.2-13.66-3.14-1.32-4.92,23.3a1.74,1.74,0,0,0,1.66,2.18H96.39A1.74,1.74,0,0,0,98,158.14l9.41-44.25a1.74,1.74,0,0,0-1.66-2.18H94.65c-2.64,0-3.25.37-4.61,2.56l-11.89,19.1,3.14.41L77.23,113a1.73,1.73,0,0,0-1.66-1.26H62.29A1.72,1.72,0,0,0,62.29,115.16Z"/><path class="cls-1" d="M89,223.22c-6.76,11.15-23.05,9.41-32.64,3.16l.62,2.35,7.48-10.59-2.35.62c3.65,2.6,11.52,7.32,16.21,4.48,3.81-2.31,1.36-6.08-1.59-7.53-3.87-1.9-9.1-2.29-11.65-6.25-3-4.6,0-11.44,3.48-14.83,7.79-7.55,18.65-5.34,27.08-.48L95,191.78l-7.36,10,2.7-.35c-3-2.37-17.7-8.77-16.39.23.5,3.48,5.15,4.14,7.8,5.19s6.14,2.4,7.75,5.06c1.94,3.22,1,8.1-.52,11.27-1,2,2,3.72,3,1.73,2.58-5.25,3.28-12.53-1.26-16.94-2.2-2.13-5.21-3.35-8-4.44a14.3,14.3,0,0,1-2.69-1q-1.57,0-1.09-1.34-.39-1.79,1.64-.64c2.42-.1,5.51,1.78,7.39,3.28a1.76,1.76,0,0,0,2.7-.35l7.36-10a1.73,1.73,0,0,0-.62-2.35c-6.36-3.67-13.22-6-20.62-4.5-6.58,1.37-12.63,5.78-15,12.19-2.12,5.66-1.46,12,3.69,15.64A22.2,22.2,0,0,0,70,216.86c1.37.55,6.37,1.66,5.77,2.94-1.33,2.86-10.37-2.92-11.92-4a1.75,1.75,0,0,0-2.35.62L54,227a1.74,1.74,0,0,0,.62,2.35C65.87,236.67,84.23,237.73,92,225,93.13,223.05,90.16,221.33,89,223.22Z"/><path class="cls-1" d="M111.41,224.09a18,18,0,0,0,4.75-1.12L114,221.32v9.35l1.26-1.66a47.76,47.76,0,0,1-5.64,1.78,21.56,21.56,0,0,1-5.06.65,6.86,6.86,0,0,1-6.2-5c-.36-1.46.68-4.45,1-5.9l2.44-11.52a1.74,1.74,0,0,0-1.66-2.18h-3.8L98,209.06l1.93-8.92-1.66,1.26h3.8a1.74,1.74,0,0,0,1.66-1.26l2.18-10.28-1.66,1.26h11.84l-1.66-2.18-2.18,10.28a1.74,1.74,0,0,0,1.66,2.18h6l-1.66-2.18-1.87,8.92,1.66-1.26h-6a1.74,1.74,0,0,0-1.66,1.26c-.79,3.71-5.39,14.72.64,15.88,2.16.41,3.09-2.9.91-3.31-1.37-.26,1.47-10.31,1.76-11.65L112,210.32h6a1.74,1.74,0,0,0,1.66-1.26l1.87-8.92a1.74,1.74,0,0,0-1.66-2.18h-6l1.66,2.18,2.18-10.28a1.74,1.74,0,0,0-1.66-2.18H104.24a1.74,1.74,0,0,0-1.66,1.26l-2.18,10.28,1.66-1.26h-3.8a1.74,1.74,0,0,0-1.66,1.26l-1.93,8.92a1.74,1.74,0,0,0,1.66,2.18h3.8l-1.66-2.18c-1.11,5.23-2.52,10.47-3.3,15.76-2,13.34,12.56,11.52,21,8.41a1.78,1.78,0,0,0,1.26-1.66v-9.35a1.73,1.73,0,0,0-2.18-1.66,14.63,14.63,0,0,1-3.84,1C109.22,220.83,109.2,224.27,111.41,224.09Z"/><path class="cls-1" d="M152.08,219.32a19.57,19.57,0,0,1-18.3,12.05c-10.42-.17-14.56-9.63-10.93-18.73a19.18,19.18,0,0,1,19-11.83c10.43.58,13.16,10.23,10,18.91-.75,2.09,2.57,3,3.31.91,3.4-9.47.57-20.85-10.43-23a22.82,22.82,0,0,0-25.14,13.62c-3.51,8.8-1.12,19.94,8.85,22.83,10.75,3.11,22.16-3.2,26.55-13.08C155.94,219.05,153,217.3,152.08,219.32Z"/><path class="cls-1" d="M175.45,208.87c-5.73,1.89-5.84,4.38-6.94,9.62L165.64,232l1.66-1.26H155.46l1.66,2.18,7-32.78-1.66,1.26h10.84l-1.66-2.18-1.37,6.23a1.73,1.73,0,0,0,3.14,1.32c2.29-3,6.06-6.63,10.27-6l-1.2-2.11-2.24,10.66,1.66-1.26a32.78,32.78,0,0,0-6.44.8c-2.16.49-1.24,3.81.91,3.31a28.26,28.26,0,0,1,5.53-.68,1.75,1.75,0,0,0,1.66-1.26l2.24-10.66a1.74,1.74,0,0,0-1.2-2.11c-6-.89-10.74,3.14-14.15,7.58l3.14,1.32,1.37-6.23a1.74,1.74,0,0,0-1.66-2.18H162.44a1.74,1.74,0,0,0-1.66,1.26l-7,32.78a1.74,1.74,0,0,0,1.66,2.18H167.3a1.74,1.74,0,0,0,1.66-1.26l2.16-10.21,1.39-6.56c.59-2.8.68-2.93,3.86-4C178.45,211.5,177.56,208.18,175.45,208.87Z"/><path class="cls-1" d="M194.35,224.74c4,3.27,9.13,1.12,11.89-2.62l-1.94.79,9.28,3-1-2.52c-5.53,7.3-20.29,12.4-26.55,3.06-5.44-8.12.34-19.24,8.09-23.27a21,21,0,0,1,14-2c5.11,1.19,8.76,6.41,5.71,11.41-3.56,5.84-13.32,5.44-19.19,5.44a1.73,1.73,0,0,0-1.72,1.72,10,10,0,0,0,1.14,4.63c1.08,1.93,4,.2,3-1.73l-.67-2.9-1.72,1.72c8.73,0,23.72-.88,23.66-12.87-.07-13.12-17.57-12.83-26-8.41-9.85,5.19-16.3,19.84-8.29,29.36,8.44,10,24.67,4.5,31.45-4.45a1.73,1.73,0,0,0-1-2.52l-9.28-3a1.76,1.76,0,0,0-1.94.79c-1.2,1.63-4.42,3.62-6.49,1.92C195.08,220.92,192.63,223.34,194.35,224.74Z"/><path class="cls-1" d="M216.12,147.26l-1.45,6.82c-.12.57-.2,2.54-.61,2.88.85-.7-2.12-.4-2.41-.41-2.4,0-5.47-1.28-5.31-4a1.73,1.73,0,0,0-2.93-1.22c-3.12,3.82-7.9,6.3-12.93,4.87-6.27-1.79-7.47-8.67-6.68-14.2a20.16,20.16,0,0,1,6.07-12c4.12-3.81,13.37-7,16,.16.54,1.46,2.92,1.8,3.31,0l1-4.62-1.66,1.26h11.9l-1.66-2.18-3.1,14.4c-.7,3.28-3.12,9.21,1.61,10.27,2.15.48,3.07-2.83.91-3.31-1-.22,3.45-18.44,3.89-20.45a1.74,1.74,0,0,0-1.66-2.18h-11.9a1.74,1.74,0,0,0-1.66,1.26l-1,4.62h3.31c-2.41-6.48-9.12-8-15.29-5.76-7.13,2.54-12.08,9.72-13.39,17-1.18,6.55,0,14.49,6.44,17.94,6.57,3.55,14.4.79,18.87-4.68l-2.93-1.22c-.47,7.93,7.34,7.84,13.21,6.77a1.67,1.67,0,0,0,1.2-1.2l2.12-10C219.89,146,216.58,145.09,216.12,147.26Z"/><path class="cls-1" d="M233.37,88c.45-8.31,13-8.38,13,0s-12.52,8.3-13,0c-.12-2.2-3.56-2.21-3.44,0,.29,5.38,4.31,9.91,9.93,9.91a9.91,9.91,0,0,0,.45-19.81c-5.79-.26-10.07,4.34-10.37,9.9C229.82,90.22,233.26,90.22,233.37,88Z"/><path class="cls-1" d="M244.34,141.08c-6-.32-6.05-9.36,0-9.36s6,9,0,9.36c-2.2.12-2.21,3.56,0,3.44a8.12,8.12,0,1,0-8.1-8.46c-.2,4.73,3.57,8.21,8.1,8.46C246.55,144.64,246.54,141.2,244.34,141.08Z"/><path class="cls-1" d="M246,54.28a54.53,54.53,0,0,0-39.65-1.83C193.6,56.78,182.17,64.66,169,67.89c-17.21,4.23-31.25-5.27-46.37-11.87-13.3-5.8-27.43-10.15-42-11a75.56,75.56,0,0,0-24.7,2.58C47.26,50.09,38.77,54.15,29.55,53l1.22,2.93A133.58,133.58,0,0,1,203.43,21.1a135.66,135.66,0,0,1,40.25,35.54c1.32,1.74,4.31,0,3-1.73C227,29,198.76,10.32,166.89,3.25A136.91,136.91,0,0,0,28.34,53.46a1.75,1.75,0,0,0,1.22,2.93c7.12.92,13.89-1.16,20.6-3.33,7.45-2.41,14.76-4.3,22.64-4.63,15.55-.64,30.94,3.45,45.22,9.33,13.27,5.47,26.18,14.66,41,14.8,12.52.12,23.93-6,35-11.18,6.95-3.29,14.08-6.48,21.7-7.82a50.4,50.4,0,0,1,28.63,3.68C246.31,58.12,248.06,55.16,246,54.28Z"/></g></g></svg>